<?xml version="1.0"?>
<svg xmlns="http://www.w3.org/2000/svg" height="512px" viewBox="-22 0 512 512" width="512px" class=""><g><path d="m55.886719 241.355469h47.085937v111.761719h-47.085937c-30.867188 0-55.886719-25.019532-55.886719-55.882813 0-30.855469 25.019531-55.878906 55.886719-55.878906zm0 0" fill="#ffbd86" data-original="#FFBD86"/><path d="m467.648438 297.230469c0 30.867187-25.019532 55.886719-55.886719 55.886719h-47.085938v-111.761719h47.085938c30.867187 0 55.886719 25.019531 55.886719 55.875zm0 0" fill="#f6a96c" data-original="#F6A96C"/><path d="m409.632812 127.210938v217.050781c0 105.558593-100.199218 167.738281-175.808593 167.738281-73.09375 0-175.808594-62.335938-175.808594-167.738281v-217.054688l175.808594-90.777343zm0 0" fill="#ffe5c2" data-original="#FFE5C2"/><path d="m409.632812 127.210938v217.050781c0 105.558593-100.199218 167.738281-175.808593 167.738281v-475.570312zm0 0" fill="#fed2a4" data-original="#FED2A4" class=""/><path d="m448.324219 126.867188v57.175781c0 15.195312-12.316407 27.511719-27.511719 27.511719h-118.304688c-8.960937 0-17.355468-4.359376-22.507812-11.691407l-31.292969-44.519531c-7.246093-10.304688-22.519531-10.304688-29.765625 0l-31.292968 44.519531c-5.152344 7.332031-13.550782 11.691407-22.507813 11.691407h-118.308594c-15.195312 0-27.511719-12.316407-27.511719-27.511719v-57.175781c0-70.066407 56.800782-126.867188 126.867188-126.867188h175.273438c70.066406 0 126.863281 56.800781 126.863281 126.867188zm0 0" fill="#ff8859" data-original="#FF8859" class="" style="fill:#5F9B8B" data-old_color="#FF8859"/><path d="m448.332031 126.867188v57.171874c0 15.195313-12.320312 27.511719-27.515625 27.511719h-118.3125c-8.953125 0-17.355468-4.363281-22.507812-11.683593l-31.289063-44.523438c-3.625-5.152344-9.253906-7.726562-14.882812-7.726562v-147.61328175h87.632812c70.074219 0 126.875 56.80078175 126.875 126.86328175zm0 0" fill="#ff7037" data-original="#FF7037" class="active-path" style="fill:#4F6861" data-old_color="#4B5552"/><path d="m195.9375 256.898438c-5.449219-6.65625-15.265625-7.632813-21.921875-2.175782l-15.054687 12.332032-15.050782-12.332032c-6.652344-5.453125-16.46875-4.480468-21.921875 2.175782-5.453125 6.652343-4.480469 16.46875 2.175781 21.921874l10.21875 8.375-10.21875 8.378907c-6.65625 5.453125-7.628906 15.265625-2.175781 21.921875s15.269531 7.628906 21.921875 2.175781l15.050782-12.332031 15.054687 12.332031c6.652344 5.453125 16.46875 4.480469 21.921875-2.175781s4.480469-16.46875-2.175781-21.921875l-10.21875-8.378907 10.21875-8.375c6.65625-5.453124 7.628906-15.269531 2.175781-21.921874zm0 0" fill="#ae3200" data-original="#AE3200" class="" style="fill:#AE3200"/><path d="m343.484375 295.574219-10.222656-8.378907 10.222656-8.375c6.652344-5.453124 7.628906-15.269531 2.175781-21.921874-5.453125-6.65625-15.269531-7.632813-21.925781-2.175782l-15.050781 12.332032-15.050782-12.332032c-6.65625-5.453125-16.472656-4.480468-21.925781 2.175782-5.449219 6.652343-4.476562 16.46875 2.175781 21.921874l10.222657 8.375-10.222657 8.378907c-6.652343 5.453125-7.625 15.265625-2.175781 21.921875 5.457031 6.65625 15.269531 7.628906 21.925781 2.175781l15.050782-12.332031 15.050781 12.332031c6.65625 5.453125 16.472656 4.480469 21.925781-2.175781s4.480469-16.472656-2.175781-21.921875zm0 0" fill="#ae3200" data-original="#AE3200" class="" style="fill:#AE3200"/><path d="m337.359375 397.039062c0 8.601563-6.980469 15.582032-15.578125 15.582032h-175.914062c-8.597657 0-15.578126-6.980469-15.578126-15.582032 0-8.609374 6.980469-15.578124 15.578126-15.578124h175.914062c8.597656 0 15.578125 6.96875 15.578125 15.578124zm0 0" fill="#ff8859" data-original="#FF8859" class="" style="fill:#5F9B8B" data-old_color="#FF8859"/><path d="m337.359375 397.039062c0 8.601563-6.980469 15.582032-15.578125 15.582032h-87.957031v-31.160156h87.957031c8.597656 0 15.578125 6.96875 15.578125 15.578124zm0 0" fill="#ff7037" data-original="#FF7037" class="active-path" style="fill:#4F6861" data-old_color="#4B5552"/></g> </svg>
